<mxfile host="app.diagrams.net" modified="2024-07-12T15:43:17.691Z" agent="Mozilla/5.0 (Macintosh; Intel Mac OS X 10_15_7) AppleWebKit/537.36 (KHTML, like Gecko) Chrome/126.0.0.0 Safari/537.36" version="24.6.5" etag="w_T7SXmt0Mm0XguPdDc5" type="github">
  <diagram name="Page-1" id="wKXyFIqMnOKx-hQX8q6S">
    <mxGraphModel>
      <root>
        <mxCell id="0" />
        <mxCell id="1" parent="0" />
      </root>
    </mxGraphModel>
  </diagram>
</mxfile>
